<svg xmlns="http://www.w3.org/2000/svg" viewBox="0 0 160 160" role="img" aria-labelledby="title desc">
  <title id="title">Example maker avatar</title>
  <desc id="desc">A simple pastel avatar for a fictional maker notes link.</desc>
  <rect width="160" height="160" rx="36" fill="#fff7ed"/>
  <circle cx="80" cy="68" r="42" fill="#93c5fd"/>
  <path d="M46 62c10-24 28-36 54-34 16 7 26 20 30 39-30-10-58-10-84-5z" fill="#bbf7d0"/>
  <rect x="52" y="76" width="20" height="12" rx="6" fill="#1f2937"/>
  <rect x="88" y="76" width="20" height="12" rx="6" fill="#1f2937"/>
  <path d="M72 96c7 4 13 4 20 0" fill="none" stroke="#1f2937" stroke-width="4" stroke-linecap="round"/>
  <path d="M30 150c10-33 30-52 50-52s40 19 50 52" fill="#f9a8d4"/>
  <path d="M124 30l7 15 16 2-12 10 4 16-15-8-14 8 4-16-12-10 16-2z" fill="#fde68a" stroke="#f59e0b" stroke-width="3"/>
</svg>
