<svg xmlns="http://www.w3.org/2000/svg" viewBox="0 0 1440 900" role="img" aria-labelledby="title desc">
  <title id="title">MikanArchive archive background</title>
  <desc id="desc">A soft library background with pastel cards, stars, and subtle shelves.</desc>
  <rect width="1440" height="900" fill="#fff7fb"/>
  <circle cx="1190" cy="132" r="220" fill="#dbeafe" opacity="0.7"/>
  <circle cx="192" cy="730" r="230" fill="#dcfce7" opacity="0.68"/>
  <circle cx="720" cy="82" r="126" fill="#fef3c7" opacity="0.62"/>
  <path d="M96 232h360M984 514h312M242 670h406" stroke="#f9a8d4" stroke-width="14" stroke-linecap="round" opacity="0.24"/>
  <g opacity="0.6">
    <rect x="122" y="266" width="62" height="104" rx="12" fill="#f9a8d4"/>
    <rect x="198" y="242" width="62" height="128" rx="12" fill="#93c5fd"/>
    <rect x="274" y="284" width="62" height="86" rx="12" fill="#fde68a"/>
    <rect x="1118" y="548" width="70" height="112" rx="14" fill="#86efac"/>
    <rect x="1204" y="526" width="70" height="134" rx="14" fill="#fda4af"/>
  </g>
  <g fill="none" stroke="#94a3b8" stroke-width="4" opacity="0.28">
    <path d="M796 646l18 40 44 5-33 29 10 43-39-22-38 22 9-43-32-29 44-5z"/>
    <path d="M570 148l12 26 29 3-22 19 7 29-26-15-25 15 6-29-21-19 29-3z"/>
  </g>
  <rect x="386" y="332" width="668" height="214" rx="36" fill="#ffffff" opacity="0.5" stroke="#e5e7eb" stroke-width="2"/>
</svg>
